<?xml version="1.0" encoding="UTF-8"?>
<svg width="56px" height="69px" viewBox="0 0 56 69" version="1.1" xmlns="http://www.w3.org/2000/svg" xmlns:xlink="http://www.w3.org/1999/xlink">
    <!-- Generator: Sketch 52.6 (67491) - http://www.bohemiancoding.com/sketch -->
    <title>Shape</title>
    <desc>Created with Sketch.</desc>
    <g id="Page-1" stroke="none" stroke-width="1" fill="none" fill-rule="evenodd">
        <g id="noun_copy_97890" fill="#000000" fill-rule="nonzero">
            <path d="M7.815,0 C3.499,0 0,3.493 0,7.803 L0,56.171 C0,59.579 2.201,62.453 5.248,63.524 C6.32,66.566 9.198,68.735 12.584,68.735 L40.602,68.735 C40.829,68.735 41.026,68.651 41.195,68.482 L55.077,53.805 C55.219,53.664 55.304,53.467 55.304,53.27 L55.304,12.563 C55.304,9.155 53.103,6.31 50.056,5.239 C49.01,2.197 46.104,0 42.69,0 L7.815,0 Z M7.815,1.578 L42.69,1.578 C45.511,1.578 47.853,3.381 48.643,5.916 C48.643,5.972 48.671,6.028 48.671,6.085 C48.755,6.338 48.812,6.648 48.84,6.93 C48.897,7.212 48.925,7.493 48.925,7.803 L48.925,47.692 L42.859,47.692 C38.542,47.692 35.044,51.185 35.044,55.496 L35.044,62.369 L7.815,62.369 C7.533,62.369 7.223,62.341 6.94,62.312 C6.658,62.256 6.347,62.171 6.065,62.115 C6.009,62.088 5.981,62.088 5.924,62.088 C5.896,62.06 5.896,62.088 5.868,62.088 C3.386,61.27 1.58,58.932 1.58,56.171 L1.58,7.803 C1.58,4.338 4.345,1.578 7.815,1.578 Z M50.478,7.24 C52.397,8.282 53.695,10.225 53.695,12.563 L53.695,52.903 L40.235,67.157 L12.584,67.157 C10.242,67.157 8.295,65.833 7.251,63.945 C7.42,63.945 7.618,63.973 7.815,63.973 L35.777,63.973 L35.834,63.973 L35.861,63.973 C35.861,63.973 35.889,63.973 35.918,63.973 C35.946,63.945 35.946,63.945 35.975,63.945 C36.06,63.918 36.144,63.889 36.201,63.861 C36.229,63.861 36.258,63.833 36.286,63.804 C36.286,63.804 36.286,63.804 36.314,63.776 C36.314,63.776 36.342,63.776 36.371,63.776 C36.371,63.748 36.371,63.748 36.371,63.748 C36.398,63.721 36.398,63.721 36.398,63.721 L50.28,49.044 C50.421,48.875 50.506,48.678 50.506,48.481 L50.506,7.803 C50.506,7.606 50.506,7.437 50.478,7.24 Z M9.621,16.395 C9.226,16.423 8.888,16.846 8.916,17.269 C8.972,17.691 9.395,18.029 9.791,17.973 L40.744,17.973 C41.167,17.973 41.534,17.607 41.534,17.184 C41.534,16.761 41.167,16.395 40.744,16.395 L9.791,16.395 C9.734,16.395 9.678,16.395 9.621,16.395 Z M9.734,31.184 C9.311,31.184 8.944,31.579 8.972,32.001 C9,32.424 9.396,32.79 9.791,32.762 L40.744,32.762 C41.167,32.762 41.534,32.396 41.534,31.973 C41.534,31.55 41.167,31.157 40.744,31.184 L9.791,31.184 C9.791,31.156 9.762,31.156 9.734,31.184 Z M9.649,45.974 C9.226,46.03 8.887,46.424 8.944,46.847 C8.972,47.27 9.395,47.608 9.79,47.579 L32.786,47.579 C33.182,47.579 33.576,47.184 33.576,46.762 C33.576,46.34 33.181,45.974 32.786,45.974 L9.791,45.974 C9.791,45.974 9.763,45.974 9.735,45.974 C9.706,45.974 9.678,45.974 9.649,45.974 Z M42.859,49.27 L47.853,49.27 L36.624,61.129 L36.624,55.495 C36.624,52.03 39.389,49.27 42.859,49.27 Z" id="Shape"></path>
        </g>
    </g>
</svg>