<svg width="147" height="26" viewBox="0 0 147 26" fill="none" xmlns="http://www.w3.org/2000/svg">
<path d="M0 4C0 1.79086 1.79086 0 4 0H142.292C144.759 0 146.638 2.21138 146.24 4.64599L143.614 20.6932C143.301 22.6064 141.661 24.0197 139.722 24.0468L4.05591 25.9433C1.82512 25.9745 0 24.1747 0 21.9437V4Z" fill="#252525"/>
<path d="M14.256 9.98V12.536H17.832V13.436H14.256V17H13.296V9.08H18.84V9.98H14.256ZM21.5802 17H20.6202V9.08H21.5802V17ZM30.387 17H29.199L25.887 11.696L25.047 10.136H25.035L25.083 11.408V17H24.171V9.08H25.359L28.659 14.36L29.511 15.944H29.523L29.475 14.672V9.08H30.387V17ZM35.5395 9.08C36.7875 9.08 37.7635 9.424 38.4675 10.112C39.1715 10.8 39.5235 11.776 39.5235 13.04C39.5235 14.304 39.1715 15.28 38.4675 15.968C37.7635 16.656 36.7875 17 35.5395 17H32.9835V9.08H35.5395ZM35.6355 16.1C36.5395 16.1 37.2435 15.832 37.7475 15.296C38.2595 14.752 38.5155 14 38.5155 13.04C38.5155 12.08 38.2595 11.332 37.7475 10.796C37.2435 10.252 36.5395 9.98 35.6355 9.98H33.9435V16.1H35.6355ZM46.6818 17H45.7218V9.08H46.6818V17ZM55.4886 17H54.3006L50.9886 11.696L50.1486 10.136H50.1366L50.1846 11.408V17H49.2726V9.08H50.4606L53.7606 14.36L54.6126 15.944H54.6246L54.5766 14.672V9.08H55.4886V17ZM60.6291 8.96C62.0451 8.96 63.0651 9.52 63.6891 10.64L62.8611 11.312C62.6211 10.784 62.3331 10.412 61.9971 10.196C61.6691 9.972 61.2171 9.86 60.6411 9.86C60.0331 9.86 59.5531 9.988 59.2011 10.244C58.8571 10.492 58.6851 10.812 58.6851 11.204C58.6851 11.46 58.7531 11.672 58.8891 11.84C59.0251 12.008 59.2491 12.156 59.5611 12.284C59.8811 12.404 60.3211 12.512 60.8811 12.608C61.9291 12.784 62.6691 13.048 63.1011 13.4C63.5411 13.752 63.7611 14.24 63.7611 14.864C63.7611 15.312 63.6331 15.708 63.3771 16.052C63.1291 16.388 62.7731 16.652 62.3091 16.844C61.8451 17.028 61.3091 17.12 60.7011 17.12C59.9011 17.12 59.2171 16.964 58.6491 16.652C58.0891 16.34 57.6611 15.924 57.3651 15.404L58.1931 14.732C58.4091 15.204 58.7251 15.572 59.1411 15.836C59.5651 16.092 60.0931 16.22 60.7251 16.22C61.3491 16.22 61.8451 16.108 62.2131 15.884C62.5811 15.652 62.7651 15.328 62.7651 14.912C62.7651 14.56 62.6051 14.28 62.2851 14.072C61.9651 13.864 61.3971 13.688 60.5811 13.544C59.5251 13.36 58.7771 13.096 58.3371 12.752C57.8971 12.408 57.6771 11.928 57.6771 11.312C57.6771 10.888 57.7971 10.496 58.0371 10.136C58.2771 9.776 58.6211 9.492 59.0691 9.284C59.5171 9.068 60.0371 8.96 60.6291 8.96ZM70.9773 9.98H68.2173V17H67.2573V9.98H64.4973V9.08H70.9773V9.98ZM76.0253 14.804H72.4373L71.5973 17H70.5893L73.6733 9.08H74.8133L77.8853 17H76.8653L76.0253 14.804ZM75.6773 13.904L74.6093 11.096L74.2373 9.992H74.2133L73.8653 11.06L72.7853 13.904H75.6773ZM85.6697 13.004V17H84.9497L84.9137 15.932C84.6817 16.316 84.3537 16.612 83.9297 16.82C83.5137 17.02 83.0097 17.12 82.4177 17.12C81.6737 17.12 81.0257 16.956 80.4737 16.628C79.9217 16.292 79.4937 15.82 79.1897 15.212C78.8937 14.596 78.7457 13.872 78.7457 13.04C78.7457 12.216 78.8977 11.496 79.2017 10.88C79.5137 10.264 79.9457 9.792 80.4977 9.464C81.0577 9.128 81.7057 8.96 82.4417 8.96C83.2257 8.96 83.8697 9.108 84.3737 9.404C84.8857 9.7 85.2977 10.156 85.6097 10.772L84.7337 11.252C84.5577 10.804 84.2697 10.46 83.8697 10.22C83.4777 9.98 83.0017 9.86 82.4417 9.86C81.9057 9.86 81.4337 9.988 81.0257 10.244C80.6257 10.5 80.3137 10.868 80.0897 11.348C79.8657 11.82 79.7537 12.384 79.7537 13.04C79.7537 14.048 79.9857 14.832 80.4497 15.392C80.9137 15.944 81.5817 16.22 82.4537 16.22C83.1417 16.22 83.7017 16.044 84.1337 15.692C84.5737 15.34 84.7937 14.836 84.7937 14.18V13.904H82.2737V13.004H85.6697ZM90.7653 13.712H88.8693V17H87.9093V9.08H90.9093C91.7173 9.08 92.3653 9.288 92.8533 9.704C93.3413 10.12 93.5853 10.684 93.5853 11.396C93.5853 11.956 93.4293 12.428 93.1173 12.812C92.8053 13.196 92.3773 13.46 91.8333 13.604L94.0653 17H92.9253L90.7653 13.712ZM88.8693 12.812H90.8973C92.0173 12.812 92.5773 12.34 92.5773 11.396C92.5773 10.452 92.0173 9.98 90.8973 9.98H88.8693V12.812ZM100.342 14.804H96.7538L95.9138 17H94.9058L97.9898 9.08H99.1298L102.202 17H101.182L100.342 14.804ZM99.9938 13.904L98.9258 11.096L98.5538 9.992H98.5298L98.1818 11.06L97.1018 13.904H99.9938ZM111.468 17H110.556V12.02L110.664 9.932H110.652L108.048 17H107.232L104.628 9.932H104.616L104.724 12.02V17H103.812V9.08H105.288L107.028 13.892L107.628 15.872H107.652L108.264 13.904L109.992 9.08H111.468V17ZM119.104 17H118.144V9.08H119.104V17ZM124.25 9.08C125.498 9.08 126.474 9.424 127.178 10.112C127.882 10.8 128.234 11.776 128.234 13.04C128.234 14.304 127.882 15.28 127.178 15.968C126.474 16.656 125.498 17 124.25 17H121.694V9.08H124.25ZM124.346 16.1C125.25 16.1 125.954 15.832 126.458 15.296C126.97 14.752 127.226 14 127.226 13.04C127.226 12.08 126.97 11.332 126.458 10.796C125.954 10.252 125.25 9.98 124.346 9.98H122.654V16.1H124.346Z" fill="white"/>
</svg>
