<svg width="131" height="26" viewBox="0 0 131 26" fill="none" xmlns="http://www.w3.org/2000/svg">
<path d="M0 4C0 1.79086 1.79086 0 4 0H126.374C128.813 0 130.684 2.16386 130.332 4.57723L127.991 20.6311C127.708 22.573 126.058 24.0226 124.096 24.0534L4.06274 25.9363C1.82934 25.9713 0 24.1704 0 21.9368V4Z" fill="#252525"/>
<path d="M14.256 9.98V12.536H17.832V13.436H14.256V17H13.296V9.08H18.84V9.98H14.256ZM21.5802 17H20.6202V9.08H21.5802V17ZM30.387 17H29.199L25.887 11.696L25.047 10.136H25.035L25.083 11.408V17H24.171V9.08H25.359L28.659 14.36L29.511 15.944H29.523L29.475 14.672V9.08H30.387V17ZM35.5395 9.08C36.7875 9.08 37.7635 9.424 38.4675 10.112C39.1715 10.8 39.5235 11.776 39.5235 13.04C39.5235 14.304 39.1715 15.28 38.4675 15.968C37.7635 16.656 36.7875 17 35.5395 17H32.9835V9.08H35.5395ZM35.6355 16.1C36.5395 16.1 37.2435 15.832 37.7475 15.296C38.2595 14.752 38.5155 14 38.5155 13.04C38.5155 12.08 38.2595 11.332 37.7475 10.796C37.2435 10.252 36.5395 9.98 35.6355 9.98H33.9435V16.1H35.6355ZM46.6818 17H45.7218V9.08H46.6818V17ZM51.8166 8.96C53.2326 8.96 54.2526 9.52 54.8766 10.64L54.0486 11.312C53.8086 10.784 53.5206 10.412 53.1846 10.196C52.8566 9.972 52.4046 9.86 51.8286 9.86C51.2206 9.86 50.7406 9.988 50.3886 10.244C50.0446 10.492 49.8726 10.812 49.8726 11.204C49.8726 11.46 49.9406 11.672 50.0766 11.84C50.2126 12.008 50.4366 12.156 50.7486 12.284C51.0686 12.404 51.5086 12.512 52.0686 12.608C53.1166 12.784 53.8566 13.048 54.2886 13.4C54.7286 13.752 54.9486 14.24 54.9486 14.864C54.9486 15.312 54.8206 15.708 54.5646 16.052C54.3166 16.388 53.9606 16.652 53.4966 16.844C53.0326 17.028 52.4966 17.12 51.8886 17.12C51.0886 17.12 50.4046 16.964 49.8366 16.652C49.2766 16.34 48.8486 15.924 48.5526 15.404L49.3806 14.732C49.5966 15.204 49.9126 15.572 50.3286 15.836C50.7526 16.092 51.2806 16.22 51.9126 16.22C52.5366 16.22 53.0326 16.108 53.4006 15.884C53.7686 15.652 53.9526 15.328 53.9526 14.912C53.9526 14.56 53.7926 14.28 53.4726 14.072C53.1526 13.864 52.5846 13.688 51.7686 13.544C50.7126 13.36 49.9646 13.096 49.5246 12.752C49.0846 12.408 48.8646 11.928 48.8646 11.312C48.8646 10.888 48.9846 10.496 49.2246 10.136C49.4646 9.776 49.8086 9.492 50.2566 9.284C50.7046 9.068 51.2246 8.96 51.8166 8.96ZM62.1648 9.98H59.4048V17H58.4448V9.98H55.6848V9.08H62.1648V9.98ZM67.2128 14.804H63.6248L62.7848 17H61.7768L64.8608 9.08H66.0008L69.0728 17H68.0528L67.2128 14.804ZM66.8648 13.904L65.7968 11.096L65.4248 9.992H65.4008L65.0528 11.06L63.9728 13.904H66.8648ZM76.8572 13.004V17H76.1372L76.1012 15.932C75.8692 16.316 75.5412 16.612 75.1172 16.82C74.7012 17.02 74.1972 17.12 73.6052 17.12C72.8612 17.12 72.2132 16.956 71.6612 16.628C71.1092 16.292 70.6812 15.82 70.3772 15.212C70.0812 14.596 69.9332 13.872 69.9332 13.04C69.9332 12.216 70.0852 11.496 70.3892 10.88C70.7012 10.264 71.1332 9.792 71.6852 9.464C72.2452 9.128 72.8932 8.96 73.6292 8.96C74.4132 8.96 75.0572 9.108 75.5612 9.404C76.0732 9.7 76.4852 10.156 76.7972 10.772L75.9212 11.252C75.7452 10.804 75.4572 10.46 75.0572 10.22C74.6652 9.98 74.1892 9.86 73.6292 9.86C73.0932 9.86 72.6212 9.988 72.2132 10.244C71.8132 10.5 71.5012 10.868 71.2772 11.348C71.0532 11.82 70.9412 12.384 70.9412 13.04C70.9412 14.048 71.1732 14.832 71.6372 15.392C72.1012 15.944 72.7692 16.22 73.6412 16.22C74.3292 16.22 74.8892 16.044 75.3212 15.692C75.7612 15.34 75.9812 14.836 75.9812 14.18V13.904H73.4612V13.004H76.8572ZM81.9528 13.712H80.0568V17H79.0968V9.08H82.0968C82.9048 9.08 83.5528 9.288 84.0408 9.704C84.5288 10.12 84.7728 10.684 84.7728 11.396C84.7728 11.956 84.6168 12.428 84.3048 12.812C83.9928 13.196 83.5648 13.46 83.0208 13.604L85.2528 17H84.1128L81.9528 13.712ZM80.0568 12.812H82.0848C83.2048 12.812 83.7648 12.34 83.7648 11.396C83.7648 10.452 83.2048 9.98 82.0848 9.98H80.0568V12.812ZM91.5293 14.804H87.9413L87.1013 17H86.0933L89.1773 9.08H90.3173L93.3893 17H92.3693L91.5293 14.804ZM91.1813 13.904L90.1133 11.096L89.7413 9.992H89.7173L89.3693 11.06L88.2893 13.904H91.1813ZM102.655 17H101.743V12.02L101.851 9.932H101.839L99.2351 17H98.4191L95.8151 9.932H95.8031L95.9111 12.02V17H94.9991V9.08H96.4751L98.2151 13.892L98.8151 15.872H98.8391L99.4511 13.904L101.179 9.08H102.655V17ZM110.291 17H109.331V9.08H110.291V17ZM115.438 9.08C116.686 9.08 117.662 9.424 118.366 10.112C119.07 10.8 119.422 11.776 119.422 13.04C119.422 14.304 119.07 15.28 118.366 15.968C117.662 16.656 116.686 17 115.438 17H112.882V9.08H115.438ZM115.534 16.1C116.438 16.1 117.142 15.832 117.646 15.296C118.158 14.752 118.414 14 118.414 13.04C118.414 12.08 118.158 11.332 117.646 10.796C117.142 10.252 116.438 9.98 115.534 9.98H113.842V16.1H115.534Z" fill="white"/>
</svg>
